<?xml version="1.0" standalone="no"?>
<!DOCTYPE svg PUBLIC "-//W3C//DTD SVG 20010904//EN"
 "http://www.w3.org/TR/2001/REC-SVG-20010904/DTD/svg10.dtd">
<svg version="1.0" xmlns="http://www.w3.org/2000/svg"
 width="647.000000pt" height="386.000000pt" viewBox="0 0 647.000000 386.000000"
 preserveAspectRatio="xMidYMid meet">

<g transform="translate(0.000000,386.000000) scale(0.100000,-0.100000)"
fill="#000000" stroke="none">
<path d="M4335 3714 c-11 -3 -24 -10 -29 -15 -6 -5 -25 -9 -43 -9 -18 0 -33
-4 -33 -10 0 -5 -5 -10 -11 -10 -16 0 -103 -43 -107 -52 -2 -5 -14 -8 -27 -8
-12 0 -28 -7 -35 -15 -7 -8 -21 -15 -31 -15 -9 0 -24 -7 -33 -15 -8 -8 -20
-15 -26 -15 -6 0 -18 -7 -26 -15 -9 -8 -26 -15 -39 -15 -12 0 -25 -7 -29 -15
-3 -8 -17 -15 -31 -15 -14 0 -25 -4 -25 -10 0 -5 -6 -10 -14 -10 -7 0 -19 -7
-26 -15 -7 -8 -21 -15 -31 -15 -9 0 -24 -7 -33 -15 -8 -8 -24 -15 -36 -15 -11
0 -23 -7 -26 -15 -4 -8 -17 -15 -30 -15 -13 0 -24 -4 -24 -9 0 -5 -13 -12 -30
-16 -16 -4 -30 -11 -30 -16 0 -5 -9 -9 -19 -9 -11 0 -26 -6 -33 -12 -21 -19
-78 -48 -94 -48 -8 0 -17 -7 -20 -15 -4 -9 -19 -15 -35 -15 -16 0 -29 -4 -29
-10 0 -5 -11 -12 -25 -16 -14 -3 -25 -10 -25 -14 0 -5 -13 -11 -30 -15 -16 -4
-30 -11 -30 -16 0 -5 -13 -9 -29 -9 -16 0 -31 -6 -35 -15 -3 -8 -15 -15 -26
-15 -11 0 -20 -4 -20 -9 0 -5 -13 -12 -30 -16 -16 -4 -30 -10 -30 -15 0 -5
-13 -11 -30 -15 -16 -4 -30 -10 -30 -15 0 -4 -11 -11 -25 -14 -14 -4 -25 -11
-25 -16 0 -6 -11 -10 -25 -10 -14 0 -28 -7 -31 -15 -4 -8 -14 -15 -24 -15 -20
0 -83 -30 -88 -42 -2 -5 -8 -8 -14 -8 -26 0 -94 -44 -106 -68 -14 -31 -16
-132 -2 -132 6 0 10 -7 10 -15 0 -8 7 -15 15 -15 8 0 15 -4 15 -10 0 -5 5 -10
11 -10 6 0 17 -7 25 -15 9 -8 24 -15 33 -15 10 0 24 -7 31 -15 7 -8 21 -15 30
-15 18 0 80 -29 90 -42 3 -3 18 -10 33 -13 15 -4 27 -11 27 -16 0 -5 11 -9 24
-9 13 0 29 -7 36 -15 7 -8 21 -15 31 -15 11 0 19 -4 19 -10 0 -5 5 -10 11 -10
11 0 74 -28 196 -86 l71 -35 4 -242 c4 -279 7 -291 86 -329 26 -13 49 -26 52
-30 3 -3 18 -10 33 -13 15 -4 27 -11 27 -16 0 -5 11 -9 25 -9 14 0 28 -7 31
-15 4 -8 17 -15 29 -15 13 0 25 -4 27 -9 2 -7 121 -67 200 -101 13 -6 30 -14
38 -19 8 -4 33 -16 55 -27 22 -10 56 -28 75 -40 20 -12 50 -25 68 -29 17 -3
32 -11 32 -16 0 -5 5 -9 12 -9 6 0 39 -13 72 -29 153 -72 176 -81 219 -81 28
0 64 9 94 24 115 58 220 105 246 111 15 4 27 11 27 15 0 4 12 11 27 15 15 3
30 10 33 13 10 13 72 42 90 42 10 0 20 7 24 15 3 8 12 15 19 15 8 0 35 11 61
25 26 14 53 25 60 25 8 0 19 7 26 15 7 8 23 15 36 15 13 0 24 4 24 10 0 5 11
12 25 16 14 3 25 10 25 14 0 5 14 11 30 15 17 4 30 11 30 16 0 5 5 9 11 9 6 0
41 15 80 33 47 22 71 39 75 55 3 12 10 22 14 22 5 0 10 107 12 237 2 178 6
237 16 241 6 2 12 10 12 18 0 8 7 14 15 14 8 0 15 5 15 10 0 6 6 10 13 10 6 0
24 6 38 14 14 7 37 16 52 20 15 3 27 11 27 16 0 6 9 10 20 10 11 0 20 4 20 10
0 5 18 14 40 20 22 6 40 15 40 20 0 6 11 10 25 10 13 0 28 6 32 13 4 8 31 22
58 32 28 11 52 22 55 25 3 3 29 17 58 30 28 14 52 28 52 32 0 5 14 8 30 8 17
0 30 4 30 10 0 5 16 17 36 26 20 9 38 23 41 31 3 7 11 13 19 13 8 0 14 10 14
24 0 14 5 28 10 31 6 3 10 17 10 31 0 13 -4 24 -10 24 -5 0 -10 10 -10 22 0
24 -44 68 -67 68 -7 0 -13 4 -13 9 0 5 -13 12 -30 16 -16 4 -30 11 -30 16 0 5
-11 9 -25 9 -14 0 -28 7 -31 15 -4 8 -17 15 -30 15 -13 0 -24 4 -24 9 0 5 -13
12 -30 16 -16 4 -30 10 -30 15 0 5 -13 11 -30 15 -16 4 -30 11 -30 16 0 5 -9
9 -20 9 -21 0 -97 36 -106 51 -3 5 -13 9 -22 9 -19 0 -145 61 -150 73 -2 4
-16 7 -32 7 -16 0 -30 7 -34 15 -3 8 -12 15 -20 15 -14 0 -76 29 -86 41 -3 3
-35 17 -72 30 -38 13 -68 27 -68 31 0 5 -8 8 -19 8 -10 0 -24 7 -31 15 -7 8
-23 15 -35 15 -13 0 -25 6 -27 13 -3 7 -23 12 -53 12 -30 0 -50 -5 -52 -12 -3
-7 -9 -13 -15 -13 -5 0 -18 -10 -29 -22 -23 -29 -26 -134 -4 -164 8 -10 15
-28 15 -39 0 -11 7 -31 16 -44 20 -28 10 -39 -41 -45 -22 -2 -53 -9 -68 -15
-16 -6 -33 -11 -38 -11 -5 0 -9 -8 -9 -18 0 -10 -5 -23 -11 -29 -7 -7 -5 -20
9 -44 l19 -34 131 -3 c86 -2 132 1 132 8 0 5 7 10 15 10 8 0 15 8 15 18 0 14
2 15 10 2 7 -12 11 -8 16 18 4 17 10 32 15 32 5 0 9 11 9 25 0 14 -4 25 -9 25
-5 0 -13 15 -16 33 -4 17 -14 41 -21 52 -8 11 -14 32 -14 47 0 21 5 28 20 28
11 0 20 -4 20 -10 0 -5 6 -10 13 -10 6 0 39 -14 72 -30 33 -16 66 -30 73 -30
6 0 12 -4 12 -9 0 -5 13 -12 30 -16 16 -4 32 -11 35 -16 4 -5 13 -9 21 -9 9 0
22 -7 30 -15 9 -8 24 -15 33 -15 10 0 24 -7 31 -15 7 -8 18 -15 25 -15 7 0 35
-11 62 -24 105 -52 180 -86 191 -86 7 0 12 -4 12 -9 0 -5 10 -13 23 -16 51
-16 165 -76 171 -91 9 -22 9 -22 -24 -29 -16 -4 -30 -11 -30 -16 0 -5 -10 -9
-22 -9 -13 0 -32 -7 -42 -15 -11 -8 -32 -15 -48 -15 -15 0 -28 -4 -28 -9 0 -5
-13 -12 -30 -16 -16 -4 -30 -10 -30 -15 0 -4 -11 -11 -25 -14 -14 -4 -25 -11
-25 -16 0 -6 -13 -10 -30 -10 -20 0 -30 -5 -30 -15 0 -10 -10 -15 -30 -15 -16
0 -30 -4 -30 -10 0 -5 -11 -12 -25 -16 -14 -3 -25 -10 -25 -14 0 -5 -13 -11
-30 -15 -16 -4 -30 -11 -30 -16 0 -5 -11 -9 -25 -9 -14 0 -28 -7 -31 -15 -4
-8 -17 -15 -30 -15 -13 0 -24 -4 -24 -10 0 -5 -12 -13 -27 -16 -15 -4 -34 -13
-41 -21 -7 -7 -22 -13 -33 -13 -11 0 -17 -4 -14 -10 3 -5 -12 -12 -35 -16 -22
-4 -40 -10 -40 -15 0 -5 -7 -9 -15 -9 -9 0 -15 9 -15 25 0 16 6 25 15 25 10 0
15 10 15 30 0 17 5 30 10 30 6 0 10 21 10 46 0 27 -4 43 -10 39 -6 -4 -10 7
-10 24 0 17 -5 31 -10 31 -6 0 -21 11 -34 25 -23 25 -25 25 -190 25 l-166 0 0
75 c0 42 -4 75 -10 75 -5 0 -12 11 -16 25 -5 22 -11 25 -53 25 -73 0 -81 -15
-81 -160 0 -72 4 -120 10 -120 5 0 12 -11 16 -25 3 -13 16 -27 27 -31 12 -4
25 -11 28 -16 4 -6 72 -11 155 -13 147 -2 149 -2 152 -25 2 -14 -3 -27 -12
-32 -9 -5 -16 -22 -16 -38 0 -16 -4 -31 -9 -34 -17 -11 -30 -90 -21 -129 8
-36 41 -77 63 -77 5 0 15 -7 22 -16 9 -13 20 -15 48 -10 21 4 37 11 37 16 0 6
11 10 25 10 14 0 28 7 31 15 4 8 12 15 19 15 7 0 26 8 43 17 56 32 62 20 62
-139 0 -153 -5 -188 -25 -188 -7 0 -15 -7 -19 -15 -3 -8 -15 -15 -26 -15 -12
0 -28 -7 -36 -15 -9 -8 -24 -15 -35 -15 -10 0 -19 -4 -19 -8 0 -8 -55 -34
-100 -47 -14 -4 -27 -10 -30 -14 -3 -3 -26 -16 -52 -29 -26 -13 -50 -27 -53
-33 -4 -5 -19 -9 -35 -9 -15 0 -30 -7 -34 -15 -3 -8 -15 -15 -26 -15 -11 0
-20 -4 -20 -10 0 -5 -9 -10 -19 -10 -11 0 -26 -7 -35 -15 -8 -8 -24 -15 -36
-15 -11 0 -23 -7 -26 -15 -4 -8 -14 -15 -24 -15 -11 0 -22 -4 -25 -10 -7 -12
-92 -50 -111 -50 -8 0 -14 -4 -14 -9 0 -5 -10 -13 -22 -17 -13 -4 -26 -12 -30
-17 -10 -17 -109 -12 -143 6 -16 9 -36 17 -42 17 -7 0 -13 4 -13 9 0 5 -12 12
-27 16 -15 3 -30 10 -33 13 -9 12 -71 42 -86 42 -8 0 -17 7 -20 15 -4 8 -14
15 -24 15 -9 0 -38 11 -64 25 -26 14 -54 25 -62 25 -8 0 -17 7 -20 15 -4 8
-16 15 -29 15 -12 0 -28 7 -35 15 -7 8 -21 15 -31 15 -11 0 -19 4 -19 10 0 5
-11 12 -25 16 -14 3 -25 10 -25 14 0 5 -13 11 -30 15 -16 4 -30 10 -30 14 0 4
-17 13 -37 19 -21 7 -72 29 -113 50 l-75 38 -2 169 c-2 94 1 176 5 182 8 12
37 1 164 -63 14 -8 33 -14 42 -14 9 0 16 -4 16 -9 0 -5 14 -12 30 -16 17 -4
30 -11 30 -16 0 -5 11 -9 25 -9 14 0 28 -7 31 -15 4 -8 12 -15 20 -15 14 0 85
-31 94 -41 3 -3 33 -16 68 -28 34 -13 62 -27 62 -31 0 -5 14 -11 30 -15 17 -4
30 -11 30 -16 0 -5 11 -9 24 -9 13 0 29 -7 36 -15 7 -8 20 -15 30 -15 10 0 34
-7 53 -15 50 -21 245 -21 273 0 10 8 29 15 40 15 12 0 27 7 34 15 7 8 25 15
41 15 16 0 29 4 29 9 0 5 12 12 27 16 65 16 85 94 36 140 -32 29 -48 31 -69
10 -9 -8 -28 -15 -44 -15 -16 0 -30 -7 -34 -15 -3 -8 -17 -15 -31 -15 -14 0
-25 -4 -25 -10 0 -5 -18 -13 -40 -16 -22 -4 -40 -10 -40 -15 0 -35 -261 25
-278 64 -2 4 -10 7 -19 7 -8 0 -27 6 -41 14 -15 7 -45 22 -67 32 -22 11 -41
22 -43 27 -2 4 -10 7 -19 7 -8 0 -27 6 -41 14 -70 37 -159 76 -174 76 -9 0
-18 7 -22 15 -3 8 -12 15 -20 15 -8 0 -49 18 -92 40 -43 22 -86 40 -95 40 -10
0 -19 4 -21 8 -5 13 -87 52 -108 52 -11 0 -20 4 -20 9 0 5 -13 12 -30 16 -16
4 -30 10 -30 15 0 5 -13 11 -30 15 -16 4 -30 11 -30 16 0 5 -11 9 -25 9 -14 0
-28 7 -31 15 -4 8 -17 15 -30 15 -13 0 -24 4 -24 9 0 5 -13 12 -30 16 -16 4
-30 10 -30 15 0 5 -13 11 -30 15 -17 4 -30 11 -30 16 0 5 -11 9 -24 9 -14 0
-31 7 -40 15 -8 8 -20 15 -26 15 -6 0 -18 7 -26 15 -9 8 -26 15 -38 15 -13 0
-29 7 -36 15 -7 8 -20 15 -29 15 -19 0 -45 36 -36 50 4 6 15 10 26 10 10 0 19
4 19 10 0 5 11 12 25 16 14 3 25 10 25 15 0 5 11 9 25 9 14 0 28 7 31 15 4 8
14 15 23 15 15 0 58 20 156 73 17 9 59 30 95 47 36 17 72 35 80 39 16 8 74 35
100 45 8 3 29 15 45 25 17 11 38 20 47 20 9 1 23 7 30 14 7 6 45 27 83 45 39
19 77 38 85 43 8 5 22 12 30 15 39 15 85 40 88 47 2 4 15 7 28 7 14 0 27 7 30
15 4 8 17 15 30 15 13 0 24 4 24 9 0 5 14 12 30 16 17 4 30 10 30 15 0 5 14
11 30 15 17 4 30 10 30 13 0 4 25 18 55 31 30 14 55 28 55 33 0 4 11 8 25 8
14 0 28 7 31 15 4 8 15 15 25 15 11 0 30 6 42 14 46 29 235 27 245 -3 2 -6 12
-11 23 -11 11 0 45 -13 76 -30 53 -29 106 -38 128 -22 40 28 31 118 -12 128
-13 4 -23 10 -23 14 0 5 -13 11 -30 15 -16 4 -30 11 -30 16 0 5 -11 9 -24 9
-13 0 -29 7 -36 15 -7 8 -27 15 -45 15 -19 0 -35 5 -37 11 -4 12 -159 22 -193
13z"/>
<path d="M319 2088 c-4 -10 -5 -641 -1 -670 l5 -38 58 0 58 0 7 47 c4 26 4
136 0 244 -7 214 -3 235 40 183 13 -16 23 -33 24 -37 0 -7 9 -19 36 -50 6 -7
15 -23 18 -35 4 -12 12 -22 17 -22 5 0 9 -7 9 -15 0 -8 4 -15 9 -15 5 0 13 -9
16 -20 4 -11 16 -31 28 -44 12 -13 31 -41 42 -63 11 -21 25 -42 32 -46 7 -4
13 -12 13 -17 0 -6 16 -33 36 -60 l36 -51 72 3 71 3 1 353 1 352 -70 0 -70 0
6 -227 c4 -126 3 -234 -2 -242 -10 -16 -31 -6 -31 15 0 8 -4 14 -9 14 -5 0
-20 17 -32 38 -13 20 -27 39 -31 40 -4 2 -8 10 -8 17 0 7 -3 15 -7 17 -13 5
-83 112 -83 126 0 6 -4 12 -9 12 -5 0 -30 35 -57 78 -71 116 -66 112 -151 112
-40 0 -73 -1 -74 -2z"/>
<path d="M1345 2080 c-3 -5 -13 -10 -22 -10 -15 0 -84 -29 -93 -40 -3 -3 -21
-18 -40 -34 -34 -28 -44 -41 -76 -106 -28 -54 -26 -272 1 -319 11 -18 25 -42
31 -52 10 -18 28 -35 71 -69 105 -82 288 -88 406 -13 44 28 107 92 107 109 0
6 6 17 14 23 28 24 44 191 25 271 -13 55 -45 120 -58 120 -4 0 -14 11 -21 25
-7 14 -19 25 -27 25 -7 0 -13 4 -13 10 0 9 -28 24 -104 54 -43 18 -191 22
-201 6z m178 -126 c39 -20 66 -48 89 -91 24 -45 25 -190 1 -241 -18 -41 -67
-92 -88 -92 -7 0 -15 -5 -17 -12 -11 -31 -198 -1 -198 32 0 6 -7 10 -15 10 -8
0 -15 7 -15 15 0 8 -4 15 -10 15 -5 0 -17 16 -25 36 -17 41 -21 189 -5 199 6
3 10 15 10 26 0 11 7 22 15 25 8 4 15 12 15 20 0 7 12 21 28 31 15 10 29 20
32 24 17 22 141 24 183 3z"/>
<path d="M1850 2076 c0 -7 7 -27 15 -42 8 -16 15 -36 15 -45 0 -9 7 -30 15
-45 8 -16 15 -37 15 -47 0 -9 4 -25 10 -35 5 -9 23 -62 41 -117 17 -55 37
-112 45 -127 8 -14 14 -38 14 -52 0 -14 4 -26 10 -26 5 0 13 -18 16 -40 4 -22
10 -40 14 -40 5 0 12 -15 15 -32 10 -43 19 -48 91 -48 65 0 84 12 98 58 4 12
12 22 17 22 5 0 9 8 9 19 0 10 12 49 26 87 14 38 29 83 34 99 24 86 33 111 41
120 5 5 9 18 9 30 0 11 7 33 15 49 8 15 15 36 15 45 0 9 7 25 15 35 8 11 15
27 15 37 0 9 7 30 15 45 29 56 23 64 -55 64 -63 0 -70 -2 -70 -19 0 -11 -4
-22 -9 -25 -4 -3 -11 -24 -15 -46 -3 -22 -11 -40 -16 -40 -6 0 -10 -15 -10
-33 0 -18 -7 -42 -15 -53 -8 -10 -15 -29 -15 -40 0 -12 -7 -35 -15 -50 -8 -16
-15 -39 -15 -51 0 -12 -4 -24 -9 -27 -4 -3 -11 -27 -15 -53 -7 -52 -37 -100
-55 -89 -6 4 -11 16 -11 26 0 11 -6 34 -14 52 -8 18 -22 60 -31 93 -9 33 -20
68 -26 77 -5 10 -9 25 -9 34 0 9 -6 30 -14 47 -8 18 -17 43 -20 57 -9 45 -31
115 -39 128 -12 18 -147 17 -147 -2z"/>
<path d="M2792 2075 c-7 -8 -15 -29 -19 -47 -3 -18 -9 -37 -13 -43 -4 -5 -10
-27 -14 -47 -4 -21 -11 -38 -15 -38 -5 0 -11 -18 -15 -40 -3 -22 -11 -40 -16
-40 -6 0 -10 -13 -10 -28 0 -16 -7 -37 -15 -48 -8 -10 -15 -28 -15 -39 0 -11
-7 -29 -15 -39 -8 -11 -15 -32 -15 -47 0 -15 -4 -31 -10 -34 -5 -3 -10 -16
-10 -29 0 -12 -7 -31 -15 -42 -8 -10 -15 -28 -15 -39 0 -11 -7 -31 -16 -43
-26 -38 -12 -52 54 -52 62 0 92 18 92 53 0 9 8 32 17 52 l17 35 137 0 c131 0
137 -1 152 -23 8 -12 18 -38 22 -57 11 -54 21 -60 91 -60 60 0 64 1 64 23 0
13 -3 27 -6 30 -10 10 -43 109 -44 129 0 9 -6 29 -14 45 -29 56 -46 101 -46
121 0 12 -4 23 -9 26 -5 4 -12 24 -16 46 -4 22 -11 42 -16 46 -5 3 -9 15 -9
28 0 12 -7 31 -15 42 -8 10 -15 28 -15 39 0 11 -7 29 -15 39 -8 11 -15 31 -15
44 0 42 -22 52 -107 52 -55 -1 -82 -5 -91 -15z m98 -132 c10 -10 21 -31 25
-48 4 -16 10 -39 14 -50 28 -70 46 -153 42 -192 -1 -18 -165 -18 -179 0 -11
13 2 71 40 182 5 17 12 41 15 55 14 80 14 79 43 53z"/>
<path d="M1250 1070 c-8 -5 -31 -10 -51 -10 -42 0 -140 -49 -178 -89 -34 -35
-71 -88 -71 -101 0 -5 -4 -10 -9 -10 -5 0 -12 -25 -16 -55 -3 -30 -11 -57 -16
-60 -15 -10 -11 -140 6 -171 8 -16 15 -37 15 -46 0 -19 32 -78 43 -78 4 0 7
-5 7 -11 0 -14 84 -99 98 -99 5 0 12 -7 16 -15 3 -8 14 -15 24 -15 11 0 37 -7
58 -16 47 -20 245 -17 266 4 6 6 21 12 33 12 21 0 65 40 65 59 0 8 -25 62 -45
98 0 1 -31 -9 -68 -22 -68 -25 -167 -34 -167 -15 0 6 -7 10 -15 10 -22 0 -76
29 -101 54 -49 50 -84 169 -65 219 6 16 11 44 11 63 0 19 3 34 8 34 4 0 16 14
27 30 11 16 25 30 31 30 7 0 14 7 18 15 3 8 13 15 23 15 10 0 27 7 37 15 26
20 122 19 160 0 38 -20 86 -20 86 0 0 8 4 15 9 15 5 0 14 14 20 31 13 37 0 69
-27 69 -10 0 -23 5 -30 12 -10 10 -56 21 -152 34 -19 2 -42 0 -50 -6z"/>
<path d="M424 1043 c-3 -10 -12 -31 -19 -48 -26 -60 -34 -80 -40 -102 -4 -13
-11 -23 -16 -23 -5 0 -9 -10 -9 -23 0 -13 -13 -50 -30 -82 -16 -32 -30 -67
-30 -77 0 -10 -4 -18 -10 -18 -5 0 -13 -18 -16 -40 -4 -22 -10 -40 -15 -40 -5
0 -9 -9 -9 -19 0 -11 -7 -26 -15 -35 -8 -8 -15 -24 -15 -36 0 -12 -7 -28 -15
-36 -8 -9 -15 -27 -15 -40 0 -14 -7 -32 -15 -40 -8 -9 -15 -24 -15 -35 0 -10
-4 -19 -10 -19 -5 0 -10 -8 -10 -19 0 -22 53 -34 111 -25 31 5 39 12 53 48 52
123 44 116 111 117 33 0 74 1 90 2 17 0 65 0 107 -1 76 -2 76 -2 83 -32 4 -16
11 -32 16 -35 5 -4 9 -16 9 -28 1 -30 31 -64 64 -73 14 -3 47 -3 72 1 45 6 46
7 40 37 -3 17 -12 44 -20 60 -8 15 -17 41 -21 58 -4 16 -11 32 -16 35 -5 4 -9
17 -9 31 0 13 -4 24 -10 24 -5 0 -13 12 -16 28 -4 15 -13 36 -20 47 -8 11 -14
30 -14 42 0 13 -4 23 -9 23 -5 0 -12 13 -16 30 -4 16 -11 32 -16 35 -5 4 -9
17 -9 30 0 13 -7 30 -15 39 -8 8 -15 21 -15 29 0 9 -8 30 -17 49 -9 18 -22 45
-30 60 -7 14 -13 36 -13 47 0 12 -4 21 -10 21 -5 0 -12 11 -16 25 -6 24 -10
25 -80 25 -62 0 -76 -3 -80 -17z m120 -285 c10 -29 25 -68 33 -85 25 -54 15
-63 -77 -63 l-80 0 0 45 c0 25 4 45 8 45 4 0 16 25 27 55 16 48 22 55 44 55
23 0 29 -7 45 -52z"/>
<path d="M1914 1023 c-10 -21 -22 -39 -26 -41 -5 -2 -8 -14 -8 -26 0 -12 -7
-31 -15 -42 -8 -10 -15 -31 -15 -46 0 -15 -4 -29 -9 -32 -5 -4 -20 -35 -33
-71 -12 -36 -26 -65 -30 -65 -5 0 -8 -8 -8 -18 0 -10 -6 -26 -14 -37 -7 -11
-17 -35 -21 -52 -3 -18 -11 -33 -16 -33 -5 0 -9 -11 -9 -24 0 -13 -7 -29 -15
-36 -8 -7 -15 -25 -15 -40 0 -15 -7 -33 -15 -40 -8 -7 -15 -20 -15 -29 0 -9
-4 -21 -9 -27 -4 -5 -11 -24 -14 -41 l-6 -33 69 0 69 0 25 53 c13 29 28 65 31
80 l7 27 168 0 168 0 16 -34 c9 -19 16 -43 16 -55 0 -12 3 -21 8 -21 4 0 12
-10 17 -22 9 -21 18 -23 88 -26 l78 -3 -6 28 c-4 15 -11 39 -17 53 -6 14 -17
41 -26 60 -8 19 -21 48 -28 63 -8 16 -14 37 -14 48 0 10 -4 19 -10 19 -5 0
-13 18 -16 40 -4 22 -10 40 -14 40 -5 0 -11 14 -15 30 -4 17 -11 30 -16 30 -5
0 -9 10 -9 23 0 12 -7 31 -15 41 -8 11 -15 27 -15 35 0 9 -14 43 -30 76 -16
33 -30 68 -30 78 0 9 -4 17 -10 17 -5 0 -10 8 -10 19 0 10 -9 30 -21 45 -18
23 -27 26 -83 26 -63 0 -63 0 -82 -37z m115 -243 c12 -22 21 -49 21 -59 0 -11
5 -21 11 -23 6 -2 12 -22 13 -43 l1 -40 -75 -3 c-95 -3 -112 6 -87 49 9 17 17
41 17 54 0 13 4 26 9 30 5 3 12 18 16 35 5 25 16 33 46 39 4 0 16 -17 28 -39z"/>
<path d="M2483 1053 c-10 -4 -13 -84 -13 -353 0 -191 3 -362 6 -379 l7 -32
166 4 c243 6 265 13 379 113 28 26 52 53 52 60 0 8 5 14 10 14 6 0 10 6 10 13
0 6 7 26 16 42 24 43 24 248 1 290 -9 17 -17 35 -17 40 0 6 -11 22 -25 37 -14
15 -25 32 -25 38 0 5 -7 10 -15 10 -8 0 -15 7 -15 15 0 8 -7 15 -15 15 -8 0
-15 4 -15 8 0 8 -26 20 -115 53 -41 16 -76 19 -215 18 -91 0 -171 -3 -177 -6z
m325 -149 c24 -3 46 -12 49 -20 3 -8 11 -14 17 -14 17 0 58 -48 79 -93 22 -49
24 -169 2 -187 -8 -7 -15 -21 -15 -32 0 -23 -68 -88 -92 -88 -9 0 -18 -5 -20
-12 -5 -14 -133 -24 -173 -14 l-25 6 0 221 c0 161 3 224 13 235 12 15 50 14
165 -2z"/>
<path d="M3247 1054 c-4 -4 -7 -175 -7 -381 l0 -373 26 -10 c28 -11 253 -13
357 -3 l67 6 0 67 c0 53 -4 69 -16 74 -9 3 -71 6 -139 6 l-122 0 -7 31 c-9 46
-7 88 4 110 10 17 22 19 115 19 96 0 105 2 119 22 18 26 21 80 6 109 -10 17
-22 19 -125 19 l-114 0 -6 33 c-4 18 -5 51 -3 72 l3 40 120 6 c66 4 128 10
138 14 21 9 29 38 25 96 l-3 44 -216 3 c-118 1 -218 -1 -222 -4z"/>
<path d="M3823 1053 c-10 -4 -13 -87 -13 -371 0 -202 4 -372 8 -379 10 -16 75
-26 117 -19 l35 7 0 214 c0 117 2 220 6 228 7 19 54 10 62 -12 3 -9 8 -18 12
-21 16 -14 70 -89 70 -99 0 -6 4 -11 9 -11 5 0 20 -17 32 -37 13 -21 27 -39
31 -41 4 -2 8 -10 8 -18 0 -8 4 -14 8 -14 13 0 72 70 72 85 0 7 7 15 15 19 8
3 15 12 15 21 0 8 4 15 8 15 5 0 17 18 28 40 10 22 24 40 29 40 6 0 15 10 20
23 6 12 20 23 32 25 l22 3 3 -226 c2 -187 6 -227 18 -235 8 -6 42 -9 75 -8
l60 3 3 388 2 387 -73 0 c-77 0 -96 -10 -112 -59 -3 -12 -11 -21 -16 -21 -5 0
-9 -7 -9 -15 0 -8 -5 -15 -10 -15 -6 0 -13 -8 -17 -17 -3 -10 -19 -34 -35 -54
-15 -20 -28 -41 -28 -46 0 -4 -11 -20 -25 -35 -14 -15 -25 -32 -25 -38 0 -5
-13 -10 -29 -10 -23 0 -34 7 -48 30 -9 17 -20 30 -24 30 -3 0 -23 27 -43 60
-21 33 -40 60 -44 60 -4 0 -16 17 -27 37 -11 20 -31 49 -45 65 -23 26 -30 28
-95 27 -38 0 -76 -3 -82 -6z"/>
<path d="M4730 1046 c0 -8 14 -35 30 -59 17 -25 30 -48 30 -52 0 -4 25 -47 55
-96 30 -49 55 -93 55 -99 0 -5 4 -10 8 -10 5 0 19 -25 33 -55 13 -30 27 -55
32 -55 4 0 7 -69 7 -154 0 -179 3 -186 79 -186 78 0 79 3 83 180 3 132 7 160
23 187 11 18 23 33 28 33 4 0 7 9 7 20 0 10 6 23 13 27 6 4 21 26 32 48 11 22
26 46 32 53 7 7 13 20 13 28 0 8 4 14 9 14 5 0 12 11 15 25 4 14 11 25 16 25
6 0 10 6 10 14 0 7 7 19 15 26 8 7 15 20 15 30 0 10 7 20 15 24 8 3 15 15 15
26 0 18 -6 20 -76 20 -66 0 -78 -3 -95 -22 -10 -13 -18 -31 -19 -41 0 -10 -7
-20 -15 -23 -8 -4 -15 -12 -15 -19 0 -16 -29 -73 -47 -93 -7 -7 -13 -18 -13
-23 0 -6 -6 -17 -14 -25 -8 -7 -16 -19 -18 -25 -7 -20 -48 1 -54 27 -3 13 -10
24 -15 24 -5 0 -9 6 -9 14 0 8 -6 21 -13 28 -6 7 -21 31 -32 53 -11 22 -23 42
-26 45 -3 3 -14 22 -24 43 l-17 37 -84 0 c-67 0 -84 -3 -84 -14z"/>
</g>
</svg>
